# xmcd CD database file
#
# Track frame offsets:
#	150
#	21702
#	42881
#	65286
#	86852
#	104942
#	124637
#	139300
#	156596
#	173610
#	193870
#
# Disc length: 2885 seconds
#
# Revision: 0
# Processed by: cddbd v1.5.2PL0 Copyright (c) Steve Scherf et al.
# Submitted via: CDex 1.60beta1
#
DISCID=a70b430b
DTITLE=Charlie A' Court - Bring On The Storm
DYEAR=2006
DGENRE=Blues
TTITLE0=Big Dark Canyon
TTITLE1=Take Me Down
TTITLE2=Give It All to You
TTITLE3=Broken Man - Charlie ACourt
TTITLE4=If You Go
TTITLE5=Bring on the Storm - Charlie ACourt
TTITLE6=Isolation Blues
TTITLE7=	Heatache of a Fool
TTITLE8=Seeing You Around
TTITLE9=Yes You Are
TTITLE10=Dreams to Remember
EXTD=YEAR: 2006
EXTT0=
EXTT1=
EXTT2=
EXTT3=
EXTT4=
EXTT5=
EXTT6=
EXTT7=
EXTT8=
EXTT9=
EXTT10=
PLAYORDER=
